# xmcd
#
# Track frame offsets:
#	150
#	15390
#	35140
#	54290
#	71937
#	89007
#	108080
#	127000
#	152910
#	167852
#
# Disc length: 2414 seconds
#
# Revision: 0
# Processed by: cddbd v1.5.2PL0 Copyright (c) Steve Scherf et al.
# Submitted via: EasyCDDAExtractor 15.3.0.1
#
DISCID=87096c0a
DTITLE=Rocio Jurado - Rocio De Luna Blanca
DYEAR=1990
DGENRE=Latin
TTITLE0=Rocio De Luna Blanca
TTITLE1=Volcan De Amor Y Fuego
TTITLE2=Por El
TTITLE3=Una Mirada
TTITLE4=La Taberna Del Puerto
TTITLE5=Tan Solo Una Mujer
TTITLE6=Ahora Que No Estas
TTITLE7=Muero Por Ti
TTITLE8=Por Si Regresa
TTITLE9=Que No Daria Yo
EXTD=
EXTT0=
EXTT1=
EXTT2=
EXTT3=
EXTT4=
EXTT5=
EXTT6=
EXTT7=
EXTT8=
EXTT9=
PLAYORDER=
